<?xml version="1.0" encoding="UTF-8" standalone="no"?>
<svg xmlns="http://www.w3.org/2000/svg" width="512" height="512" viewBox="0 0 512 512">
  <rect width="512" height="512" rx="128" fill="#3897f0"/>
  <g transform="translate(128, 128) scale(0.5)">
    <path d="M370.1,160.7L370.1,160.7c-11.5,0-21.4,8.2-23.6,19.5l-24.6,125.8c-3.3,17,9.3,33,26.5,33l0,0
      c11.5,0,21.4-8.2,23.6-19.5l24.6-125.8C399.9,176.7,387.3,160.7,370.1,160.7z" fill="white"/>
    <g>
      <path d="M159.6,312.1v52.9c0,14.6,11.9,26.5,26.5,26.5l0,0c14.6,0,26.5-11.9,26.5-26.5v-52.9H159.6z" fill="white"/>
      <path d="M291.6,312.1v52.9c0,14.6,11.9,26.5,26.5,26.5h0c14.6,0,26.5-11.9,26.5-26.5v-52.9H291.6z" fill="white"/>
    </g>
    <path d="M400.1,152.7H89.5c-11,0-19.9,8.9-19.9,19.9v0c0,11,8.9,19.9,19.9,19.9h310.6c11,0,19.9-8.9,19.9-19.9v0
      C420,161.6,411.1,152.7,400.1,152.7z" fill="white"/>
    <path d="M119.5,160.7L119.5,160.7c-17.2,0-29.8,16-26.5,33l24.6,125.8c2.2,11.3,12,19.5,23.6,19.5l0,0
      c17.2,0,29.8-16,26.5-33l-24.6-125.8C140.9,168.9,131,160.7,119.5,160.7z" fill="white"/>
    <path d="M345.2,90L319,47.7c-2.6-4.2-8.2-5.4-12.4-2.8c-4.2,2.6-5.4,8.2-2.8,12.4l26.3,42.6H166.8l26.3-42.6
      c2.6-4.2,1.4-9.8-2.8-12.4c-4.2-2.6-9.8-1.4-12.4,2.8L151.7,90c-13.4,3.8-23.1,15.8-23.1,30.1v19.9h239.8V120
      C368.3,105.8,358.6,93.8,345.2,90z" fill="white"/>
    <rect x="116.7" y="177.2" width="266.6" height="141.6" rx="12" fill="white"/>
  </g>
</svg>